REM DIRINDEX 1\5,1\2\6,1\2\7,1\3\8,1\3\9,1\4\10,1\4\11,1\4\12
REM DIRNAME cjc026,folder01,folder02,folder03,folder04,folder05,folder06,folder07,folder08,folder09,folder10,folder11
TITLE ""
FILE "EJE_DB3000_5th_1A_07.mp3" MP3
  TRACK 01 AUDIO
    TITLE "0:"
    INDEX 01 00:00:00
  TRACK 02 AUDIO
    TITLE "10:cjc026_07059"
    INDEX 01 00:00:08
  TRACK 03 AUDIO
    TITLE "0:"
    INDEX 01 00:01:08
  TRACK 04 AUDIO
    TITLE "11:cjc026_07060"
    INDEX 01 00:01:57
  TRACK 05 AUDIO
    TITLE "0:"
    INDEX 01 00:03:23
  TRACK 06 AUDIO
    TITLE "12:cjc026_07061"
    INDEX 01 00:03:58
  TRACK 07 AUDIO
    TITLE "0:"
    INDEX 01 00:04:59
  TRACK 08 AUDIO
    TITLE "10:cjc026_07062"
    INDEX 01 00:05:32
  TRACK 09 AUDIO
    TITLE "0:"
    INDEX 01 00:06:46
  TRACK 10 AUDIO
    TITLE "11:cjc026_07063"
    INDEX 01 00:07:09
  TRACK 11 AUDIO
    TITLE "0:"
    INDEX 01 00:08:37
  TRACK 12 AUDIO
    TITLE "12:cjc026_07064"
    INDEX 01 00:08:72
  TRACK 13 AUDIO
    TITLE "0:"
    INDEX 01 00:10:11
  TRACK 14 AUDIO
    TITLE "10:cjc026_07065"
    INDEX 01 00:10:49
  TRACK 15 AUDIO
    TITLE "0:"
    INDEX 01 00:11:60
  TRACK 16 AUDIO
    TITLE "11:cjc026_07066"
    INDEX 01 00:12:23
  TRACK 17 AUDIO
    TITLE "0:"
    INDEX 01 00:13:61
  TRACK 18 AUDIO
    TITLE "12:cjc026_07067"
    INDEX 01 00:14:21
  TRACK 19 AUDIO
    TITLE "0:"
    INDEX 01 00:15:36
  TRACK 20 AUDIO
    TITLE "10:cjc026_07068"
    INDEX 01 00:15:71
  TRACK 21 AUDIO
    TITLE "0:"
    INDEX 01 00:17:12
  TRACK 22 AUDIO
    TITLE "11:cjc026_07069"
    INDEX 01 00:17:48
  TRACK 23 AUDIO
    TITLE "0:"
    INDEX 01 00:18:70
  TRACK 24 AUDIO
    TITLE "12:cjc026_07070"
    INDEX 01 00:19:30
  TRACK 25 AUDIO
    TITLE "0:"
    INDEX 01 00:20:44
  TRACK 26 AUDIO
    TITLE "10:cjc026_07071"
    INDEX 01 00:21:04
  TRACK 27 AUDIO
    TITLE "0:"
    INDEX 01 00:22:21
  TRACK 28 AUDIO
    TITLE "11:cjc026_07072"
    INDEX 01 00:22:59
  TRACK 29 AUDIO
    TITLE "0:"
    INDEX 01 00:23:73
  TRACK 30 AUDIO
    TITLE "12:cjc026_07073"
    INDEX 01 00:24:33
  TRACK 31 AUDIO
    TITLE "0:"
    INDEX 01 00:25:50
  TRACK 32 AUDIO
    TITLE "10:cjc026_07074"
    INDEX 01 00:26:12
  TRACK 33 AUDIO
    TITLE "0:"
    INDEX 01 00:27:27
  TRACK 34 AUDIO
    TITLE "11:cjc026_07075"
    INDEX 01 00:27:62
  TRACK 35 AUDIO
    TITLE "0:"
    INDEX 01 00:29:12
  TRACK 36 AUDIO
    TITLE "12:cjc026_07076"
    INDEX 01 00:29:47
  TRACK 37 AUDIO
    TITLE "0:"
    INDEX 01 00:30:63
  TRACK 38 AUDIO
    TITLE "10:cjc026_07077"
    INDEX 01 00:31:24
  TRACK 39 AUDIO
    TITLE "0:"
    INDEX 01 00:32:48
  TRACK 40 AUDIO
    TITLE "11:cjc026_07078"
    INDEX 01 00:33:08
  TRACK 41 AUDIO
    TITLE "0:"
    INDEX 01 00:34:42
  TRACK 42 AUDIO
    TITLE "12:cjc026_07079"
    INDEX 01 00:35:02
  TRACK 43 AUDIO
    TITLE "0:"
    INDEX 01 00:36:27
  TRACK 44 AUDIO
    TITLE "10:cjc026_07080"
    INDEX 01 00:36:62
  TRACK 45 AUDIO
    TITLE "0:"
    INDEX 01 00:37:73
  TRACK 46 AUDIO
    TITLE "11:cjc026_07081"
    INDEX 01 00:38:36
  TRACK 47 AUDIO
    TITLE "0:"
    INDEX 01 00:40:02
  TRACK 48 AUDIO
    TITLE "12:cjc026_07082"
    INDEX 01 00:40:37
  TRACK 49 AUDIO
    TITLE "0:"
    INDEX 01 00:41:48
  TRACK 50 AUDIO
    TITLE "10:cjc026_07083"
    INDEX 01 00:42:11
  TRACK 51 AUDIO
    TITLE "0:"
    INDEX 01 00:43:25
  TRACK 52 AUDIO
    TITLE "11:cjc026_07084"
    INDEX 01 00:43:60
  TRACK 53 AUDIO
    TITLE "0:"
    INDEX 01 00:45:27
  TRACK 54 AUDIO
    TITLE "12:cjc026_07085"
    INDEX 01 00:45:62
  TRACK 55 AUDIO
    TITLE "0:"
    INDEX 01 00:47:01
  TRACK 56 AUDIO
    TITLE "10:cjc026_07086"
    INDEX 01 00:47:39
  TRACK 57 AUDIO
    TITLE "0:"
    INDEX 01 00:48:53
  TRACK 58 AUDIO
    TITLE "11:cjc026_07087"
    INDEX 01 00:49:15
  TRACK 59 AUDIO
    TITLE "0:"
    INDEX 01 00:50:38
  TRACK 60 AUDIO
    TITLE "12:cjc026_07088"
    INDEX 01 00:51:00
  TRACK 61 AUDIO
    TITLE "0:"
    INDEX 01 00:52:17
  TRACK 62 AUDIO
    TITLE "10:cjc026_07089"
    INDEX 01 00:52:52
  TRACK 63 AUDIO
    TITLE "0:"
    INDEX 01 00:53:66
  TRACK 64 AUDIO
    TITLE "11:cjc026_07090"
    INDEX 01 00:54:27
  TRACK 65 AUDIO
    TITLE "0:"
    INDEX 01 00:55:57
  TRACK 66 AUDIO
    TITLE "12:cjc026_07091"
    INDEX 01 00:56:17
  TRACK 67 AUDIO
    TITLE "0:"
    INDEX 01 00:57:28
